<svg width="132" height="50" viewBox="0 0 132 50" fill="none" xmlns="http://www.w3.org/2000/svg">
<path d="M72.672 21.48C72.368 20.92 71.928 20.496 71.352 20.208C70.792 19.904 70.128 19.752 69.36 19.752C68.032 19.752 66.968 20.192 66.168 21.072C65.368 21.936 64.968 23.096 64.968 24.552C64.968 26.104 65.384 27.32 66.216 28.2C67.064 29.064 68.224 29.496 69.696 29.496C70.704 29.496 71.552 29.24 72.24 28.728C72.944 28.216 73.456 27.48 73.776 26.52H68.568V23.496H77.496V27.312C77.192 28.336 76.672 29.288 75.936 30.168C75.216 31.048 74.296 31.76 73.176 32.304C72.056 32.848 70.792 33.12 69.384 33.12C67.72 33.12 66.232 32.76 64.92 32.04C63.624 31.304 62.608 30.288 61.872 28.992C61.152 27.696 60.792 26.216 60.792 24.552C60.792 22.888 61.152 21.408 61.872 20.112C62.608 18.8 63.624 17.784 64.92 17.064C66.216 16.328 67.696 15.96 69.36 15.96C71.376 15.96 73.072 16.448 74.448 17.424C75.84 18.4 76.76 19.752 77.208 21.48H72.672ZM85.8653 33.192C84.5533 33.192 83.3693 32.912 82.3133 32.352C81.2733 31.792 80.4493 30.992 79.8413 29.952C79.2493 28.912 78.9533 27.696 78.9533 26.304C78.9533 24.928 79.2573 23.72 79.8652 22.68C80.4733 21.624 81.3053 20.816 82.3613 20.256C83.4173 19.696 84.6013 19.416 85.9133 19.416C87.2253 19.416 88.4093 19.696 89.4653 20.256C90.5213 20.816 91.3533 21.624 91.9613 22.68C92.5693 23.72 92.8733 24.928 92.8733 26.304C92.8733 27.68 92.5613 28.896 91.9373 29.952C91.3293 30.992 90.4893 31.792 89.4173 32.352C88.3613 32.912 87.1773 33.192 85.8653 33.192ZM85.8653 29.64C86.6493 29.64 87.3133 29.352 87.8573 28.776C88.4173 28.2 88.6973 27.376 88.6973 26.304C88.6973 25.232 88.4253 24.408 87.8813 23.832C87.3533 23.256 86.6973 22.968 85.9133 22.968C85.1133 22.968 84.4493 23.256 83.9213 23.832C83.3933 24.392 83.1293 25.216 83.1293 26.304C83.1293 27.376 83.3853 28.2 83.8973 28.776C84.4253 29.352 85.0813 29.64 85.8653 29.64ZM100.139 19.416C101.083 19.416 101.907 19.608 102.611 19.992C103.331 20.376 103.883 20.88 104.267 21.504V19.608H108.371V32.976C108.371 34.208 108.123 35.32 107.627 36.312C107.147 37.32 106.403 38.12 105.395 38.712C104.403 39.304 103.163 39.6 101.675 39.6C99.6905 39.6 98.0825 39.128 96.8505 38.184C95.6185 37.256 94.9145 35.992 94.7385 34.392H98.7945C98.9225 34.904 99.2265 35.304 99.7065 35.592C100.187 35.896 100.779 36.048 101.483 36.048C102.331 36.048 103.003 35.8 103.499 35.304C104.011 34.824 104.267 34.048 104.267 32.976V31.08C103.867 31.704 103.315 32.216 102.611 32.616C101.907 33 101.083 33.192 100.139 33.192C99.0345 33.192 98.0345 32.912 97.1385 32.352C96.2425 31.776 95.5305 30.968 95.0025 29.928C94.4905 28.872 94.2345 27.656 94.2345 26.28C94.2345 24.904 94.4905 23.696 95.0025 22.656C95.5305 21.616 96.2425 20.816 97.1385 20.256C98.0345 19.696 99.0345 19.416 100.139 19.416ZM104.267 26.304C104.267 25.28 103.979 24.472 103.403 23.88C102.843 23.288 102.155 22.992 101.339 22.992C100.523 22.992 99.8265 23.288 99.2505 23.88C98.6905 24.456 98.4105 25.256 98.4105 26.28C98.4105 27.304 98.6905 28.12 99.2505 28.728C99.8265 29.32 100.523 29.616 101.339 29.616C102.155 29.616 102.843 29.32 103.403 28.728C103.979 28.136 104.267 27.328 104.267 26.304ZM115.444 15.24V33H111.34V15.24H115.444ZM131.042 26.088C131.042 26.472 131.018 26.872 130.97 27.288H121.682C121.746 28.12 122.01 28.76 122.474 29.208C122.954 29.64 123.538 29.856 124.226 29.856C125.25 29.856 125.962 29.424 126.362 28.56H130.73C130.506 29.44 130.098 30.232 129.506 30.936C128.93 31.64 128.202 32.192 127.322 32.592C126.442 32.992 125.458 33.192 124.37 33.192C123.058 33.192 121.89 32.912 120.866 32.352C119.842 31.792 119.042 30.992 118.466 29.952C117.89 28.912 117.602 27.696 117.602 26.304C117.602 24.912 117.882 23.696 118.442 22.656C119.018 21.616 119.818 20.816 120.842 20.256C121.866 19.696 123.042 19.416 124.37 19.416C125.666 19.416 126.818 19.688 127.826 20.232C128.834 20.776 129.618 21.552 130.178 22.56C130.754 23.568 131.042 24.744 131.042 26.088ZM126.842 25.008C126.842 24.304 126.602 23.744 126.122 23.328C125.642 22.912 125.042 22.704 124.322 22.704C123.634 22.704 123.05 22.904 122.57 23.304C122.106 23.704 121.818 24.272 121.706 25.008H126.842Z" fill="#0077B6"/>
<rect x="0.5" y="0.5" width="49" height="49" stroke="black"/>
</svg>
